<?xml version="1.0" encoding="UTF-8"?>
<svg width="17px" height="24px" viewBox="0 0 17 24" version="1.1" xmlns="http://www.w3.org/2000/svg" xmlns:xlink="http://www.w3.org/1999/xlink">
    <g id="Page-1" stroke="none" stroke-width="1" fill="none" fill-rule="evenodd">
        <g id="Result" transform="translate(-1364.000000, -25.000000)" fill="currentColor" fill-rule="nonzero">
            <g id="noun_export_1179483" transform="translate(1364.000000, 25.000000)">
              <path d="M9.11011576,6.644611 L14.7451456,12.2153941 C16.0408233,13.5156342 14.0971349,15.4661668 12.8014572,14.1659267 L10.3812312,11.7369136 C9.97574448,11.3299547 9.65039369,11.46642 9.65039369,12.0375562 L9.65039369,22.1552834 C9.65039369,22.9172911 9.03502407,23.5344828 8.27603386,23.5344828 C7.51670007,23.5344828 6.90167403,22.9172911 6.90167403,22.1552834 L6.90167403,12.0375562 C6.90167403,11.4684063 6.57443128,11.3318178 6.17075686,11.7369136 L3.75026693,14.1659267 C2.45458921,15.4661668 0.510900793,13.5156342 1.80657855,12.2153941 L7.39532555,6.64792438 C7.86727438,6.17777231 8.63569972,6.1756039 9.11011576,6.644611 Z M1.37931034,2.75862069 C0.617538276,2.75862069 0,2.14108241 0,1.37931034 C0,0.617538276 0.617538276,0 1.37931034,0 L15.1724138,0 C15.9341859,0 16.5517241,0.617538276 16.5517241,1.37931034 C16.5517241,2.14108241 15.9341859,2.75862069 15.1724138,2.75862069 L1.37931034,2.75862069 Z"></path>
            </g>
        </g>
    </g>
</svg>