<?xml version="1.0" encoding="UTF-8"?>
<svg width="27px" height="27px" viewBox="0 0 47 47" version="1.1" xmlns="http://www.w3.org/2000/svg" xmlns:xlink="http://www.w3.org/1999/xlink">
    <g id="Page-1" stroke="none" stroke-width="1" fill="none" fill-rule="evenodd">
        <g id="icon-house-blueprint" transform="translate(-0.793478, -0.206522)">
            <polygon id="Stroke-114" stroke="currentColor" stroke-width="0.586956522" points="11.7934783 35.2065217 37.7934783 35.2065217 37.7934783 9.20652174 11.7934783 9.20652174"></polygon>
            <polyline id="Stroke-115" stroke="currentColor" stroke-width="0.586956522" points="21.7934783 18.5398551 21.7934783 23.2065217 11.7934783 23.2065217 11.7934783 9.20652174 21.7934783 9.20652174 21.7934783 13.8731884"></polyline>
            <path d="M19.7934783,13.7065217 L21.7934783,13.7065217" id="Stroke-116" stroke="currentColor" stroke-width="0.586956522"></path>
            <path d="M19.7934783,17.7065217 L21.7934783,17.7065217" id="Stroke-117" stroke="currentColor" stroke-width="0.586956522"></path>
            <path d="M30.2934783,15.2065217 L30.2934783,17.2065217" id="Stroke-118" stroke="currentColor" stroke-width="0.586956522"></path>
            <path d="M35.2934783,15.2065217 L35.2934783,17.2065217" id="Stroke-119" stroke="currentColor" stroke-width="0.586956522"></path>
            <polyline id="Stroke-120" stroke="currentColor" stroke-width="0.586956522" points="33.1268116 25.2065217 37.7934783 25.2065217 37.7934783 35.2065217 23.7934783 35.2065217 23.7934783 25.2065217 28.4601449 25.2065217"></polyline>
            <path d="M29.2934783,27.2065217 L29.2934783,25.2065217" id="Stroke-121" stroke="currentColor" stroke-width="0.586956522"></path>
            <path d="M33.2934783,27.2065217 L33.2934783,25.2065217" id="Stroke-122" stroke="currentColor" stroke-width="0.586956522"></path>
            <polyline id="Stroke-123" stroke="currentColor" stroke-width="0.586956522" points="9.79347826 10.2065217 7.79347826 9.20652174 5.79347826 10.2065217"></polyline>
            <path d="M7.29347826,9.20652174 L7.29347826,37.2065217" id="Stroke-124" stroke="currentColor" stroke-width="0.586956522"></path>
            <polyline id="Stroke-125" stroke="currentColor" stroke-width="0.586956522" points="5.79347826 35.2065217 7.79347826 36.2065217 9.79347826 35.2065217"></polyline>
            <path d="M37.7934783,39.7065217 L9.79347826,39.7065217" id="Stroke-126" stroke="currentColor" stroke-width="0.586956522"></path>
            <polyline id="Stroke-127" stroke="currentColor" stroke-width="0.586956522" points="36.7934783 41.2065217 37.7934783 39.2065217 36.7934783 37.2065217"></polyline>
            <polyline id="Stroke-128" stroke="currentColor" stroke-width="0.586956522" points="11.7934783 37.2065217 10.7934783 39.2065217 11.7934783 41.2065217"></polyline>
            <polyline id="Stroke-129" stroke="currentColor" stroke-width="0.586956522" points="34.3197941 15.2065217 37.7934783 15.2065217 37.7934783 9.20652174 26.7934783 9.20652174 26.7934783 15.2065217 29.6882151 15.2065217"></polyline>
        </g>
    </g>
</svg>