<?xml version="1.0" encoding="UTF-8"?>
<svg width="20px" height="18px" viewBox="0 0 20 18" version="1.1" xmlns="http://www.w3.org/2000/svg" xmlns:xlink="http://www.w3.org/1999/xlink">
    <!-- Generator: Sketch 55.2 (78181) - https://sketchapp.com -->
    <title>Path</title>
    <desc>Created with Sketch.</desc>
    <g id="Page-1" stroke="none" stroke-width="1" fill="none" fill-rule="evenodd" opacity="0.3">
        <g id="Result" transform="translate(-658.000000, -339.000000)" fill="#000000" fill-rule="nonzero">
            <g id="Group-43" transform="translate(658.000000, 336.000000)">
                <g id="noun_floorplan_577092" transform="translate(0.000000, 3.000000)">
                    <polygon id="Path" points="19.027027 10.5405405 19.8378378 9.78378378 17.4054054 7.13513514 17.4054054 0.216216216 0.108108108 0.216216216 0.108108108 17.5135135 17.4054054 17.5135135 17.4054054 12.2162162 16.3243243 12.2162162 16.3243243 16.4324324 8.86486486 16.4324324 8.86486486 13.4324324 7.78378378 13.4324324 7.78378378 16.4324324 1.18918919 16.4324324 1.18918919 8.7027027 7.78378378 8.7027027 7.78378378 11.972973 8.86486486 11.972973 8.86486486 7.62162162 1.18918919 7.62162162 1.18918919 1.2972973 16.3243243 1.2972973 16.3243243 4.10810811 13.0810811 4.10810811 13.0810811 5.18918919 16.3243243 5.18918919 16.3243243 7.51351351"></polygon>
                </g>
            </g>
        </g>
    </g>
</svg>