<?xml version="1.0" encoding="UTF-8"?>
<svg width="27px" height="27px" viewBox="0 0 47 47" version="1.1" xmlns="http://www.w3.org/2000/svg" xmlns:xlink="http://www.w3.org/1999/xlink">
  <g id="Page-1" stroke="none" stroke-width="1" fill="none" fill-rule="evenodd">
    <polygon id="Stroke-176" stroke="currentColor" points="21 38 26 38 26 27 21 27"></polygon>
    <path d="M23,32.5 L24,32.5" id="Stroke-177" stroke="currentColor"></path>
    <path d="M13.5,31 L13.5,24" id="Stroke-178" stroke="currentColor"></path>
    <path d="M8,27.5 L18,27.5" id="Stroke-179" stroke="currentColor"></path>
    <polygon id="Stroke-189" stroke="currentColor" points="17.5 13 4 20.7647059 4 24 17.5 16.2352941 31 24 31 20.7647059"></polygon>
    <polygon id="Stroke-190" stroke="currentColor" points="17.5 15 6 22.1090909 6 38 29 38 29 22.1090909"></polygon>
    <polygon id="Stroke-191" stroke="currentColor" points="8 31 18 31 18 24 8 24"></polygon>
    <path d="M6,34.5 L21,34.5" id="Stroke-206" stroke="currentColor"></path>
    <polygon id="Stroke-207" stroke="currentColor" points="33 34 38 34 38 23 33 23"></polygon>
    <path d="M35,28.5 L36,28.5" id="Stroke-208" stroke="currentColor"></path>
    <polygon id="Stroke-270" stroke="currentColor" points="29.4705883 8 20 13.4352941 22.8188529 15.0529412 29.4705883 11.2352941 43 19 43 15.7647059"></polygon>
    <polygon id="Stroke-271" stroke="currentColor" points="29.5961316 12 23 16.1121212 30.9377632 21.060606 30.9377632 24.5454546 28.9253159 23.2909091 28.9253159 35 41 35 41 19.1090909"></polygon>
    <path d="M26,34.5 L29,34.5" id="Stroke-272" stroke="currentColor"></path>
    <path d="M29,31.5 L33,31.5" id="Stroke-273" stroke="currentColor"></path>
    <path d="M38,31.5 L41,31.5" id="Stroke-274" stroke="currentColor"></path>
    <path d="M9,31.5 L19,31.5" id="Stroke-316" stroke="currentColor"></path>
  </g>
</svg>