<?xml version="1.0" encoding="UTF-8"?>
<svg width="21px" height="21px" viewBox="0 0 27 27" version="1.1" xmlns="http://www.w3.org/2000/svg" xmlns:xlink="http://www.w3.org/1999/xlink">
    <g id="Page-1" stroke="currentColor" stroke-width="1" fill="none" fill-rule="evenodd">
        <g id="icon-note">
            <path d="M20.2183908,14.5747126 L20.2183908,22.5057471 C20.217302,22.870311 19.9220351,23.1655779 19.5574713,23.1666667 L7.66091954,23.1666667 C7.2963557,23.1655779 7.0010888,22.870311 7,22.5057471 L7,4.66091954 C7.0010888,4.2963557 7.2963557,4.0010888 7.66091954,4 L19.5574713,4 C19.9220351,4.0010888 20.217302,4.2963557 20.2183908,4.66091954 L20.2183908,6.64367816" id="Shape" stroke="currentColor"></path>
            <polygon id="Rectangle-path" stroke="currentColor" transform="translate(17.511822, 13.315787) rotate(-135.000000) translate(-17.511822, -13.315787) " points="16.1899826 4.55860321 18.8336607 4.55860321 18.8336607 22.0729711 16.1899826 22.0729711"></polygon>
            <polygon id="Shape" stroke="currentColor" points="10.3848994 18.5736063 8.98275862 21.8448276 12.2539799 20.4426868"></polygon>
            <path d="M22.930135,4.37651897 L25.5738131,4.37651897 L25.5738131,7.45309944 C25.5738131,8.183131 24.9820056,8.77493852 24.2519741,8.77493852 C23.5219425,8.77493852 22.930135,8.183131 22.930135,7.45309944 L22.930135,4.37651897 Z" id="Shape" stroke="currentColor" transform="translate(24.251974, 6.575729) rotate(-135.000000) translate(-24.251974, -6.575729) "></path>
            <path d="M9.64367816,6.97413793 L17.5747126,6.97413793" id="Shape" stroke="currentColor"></path>
            <path d="M9.64367816,8.95689655 L17.5747126,8.95689655" id="Shape" stroke="currentColor"></path>
            <path d="M9.64367816,10.9396552 L15.591954,10.9396552" id="Shape" stroke="currentColor"></path>
        </g>
    </g>
</svg>