<?xml version="1.0" encoding="UTF-8"?>
<svg width="16px" height="16px" viewBox="0 0 16 16" version="1.1" xmlns="http://www.w3.org/2000/svg" xmlns:xlink="http://www.w3.org/1999/xlink">
    <g id="Page-1" stroke="none" stroke-width="1" fill="none" fill-rule="evenodd">
        <g id="Result" transform="translate(-376.000000, -48.000000)" fill="currentColor" fill-rule="nonzero">
            <g id="Group-35" transform="translate(352.000000, 24.000000)">
                <g id="noun_Search_875352" transform="translate(24.000000, 24.000000)">
                    <path d="M15.6878049,14.4390244 L12.8390244,11.6097561 C15.0634146,8.76097561 14.8292683,4.70243902 12.2731707,2.14634146 C10.9268293,0.8 9.13170732,0.0585365854 7.2195122,0.0585365854 C5.30731707,0.0585365854 3.51219512,0.8 2.16585366,2.14634146 C0.819512195,3.49268293 0.0780487805,5.28780488 0.0780487805,7.2 C0.0780487805,9.11219512 0.819512195,10.9073171 2.16585366,12.2536585 C3.51219512,13.6 5.30731707,14.3414634 7.2195122,14.3414634 C8.8,14.3414634 10.3609756,13.8146341 11.6097561,12.8195122 L14.4390244,15.6878049 C14.6146341,15.8634146 14.8292683,15.9414634 15.0634146,15.9414634 C15.297561,15.9414634 15.5121951,15.8439024 15.6878049,15.6878049 C16.0390244,15.3560976 16.0390244,14.7902439 15.6878049,14.4390244 Z M12.604878,7.2 C12.604878,8.64390244 12.0390244,9.9902439 11.0243902,11.004878 C10.0097561,12.0195122 8.64390244,12.5853659 7.2195122,12.5853659 C5.79512195,12.5853659 4.42926829,12.0195122 3.41463415,11.004878 C2.4,9.9902439 1.83414634,8.62439024 1.83414634,7.2 C1.83414634,5.75609756 2.4,4.4097561 3.41463415,3.39512195 C4.42926829,2.3804878 5.79512195,1.81463415 7.2195122,1.81463415 C8.66341463,1.81463415 10.0097561,2.3804878 11.0243902,3.39512195 C12.0390244,4.4097561 12.604878,5.75609756 12.604878,7.2 Z" id="Shape"></path>
                </g>
            </g>
        </g>
    </g>
</svg>