<?xml version="1.0" encoding="UTF-8"?>
<svg width="89px" height="47px" viewBox="0 0 89 47" version="1.1" xmlns="http://www.w3.org/2000/svg" xmlns:xlink="http://www.w3.org/1999/xlink">
    <g id="Page-1" stroke="none" stroke-width="1" fill="none" fill-rule="evenodd">
        <g id="Result" transform="translate(-78.000000, -32.000000)" fill="currentColor">
            <g id="Group-57" transform="translate(78.000000, 32.000000)">
                <path d="M24.140225,18.580625 C24.128725,18.580625 24.117225,18.580375 24.106225,18.579875 C24.058725,18.577625 24.011475,18.571125 23.963975,18.559875 C23.748975,18.509125 23.447475,18.338875 23.228725,17.815625 C22.876725,16.971375 22.858225,15.350875 23.436225,14.099875 C23.521975,13.939875 23.609475,13.808125 23.701225,13.697875 C24.332225,12.765625 24.498725,11.739875 24.445725,11.085875 C24.386725,10.597125 24.562225,9.955125 24.915975,9.375875 C25.327475,8.768125 25.711475,8.601625 25.961975,8.567875 C26.191225,8.535875 26.409975,8.603875 26.559725,8.754375 C26.735475,8.930125 26.825225,9.198375 26.818725,9.530125 C26.806725,10.158625 26.468725,10.936875 25.996975,11.422625 C25.160725,12.435375 25.182475,13.259375 25.491975,14.256875 C25.982475,15.468875 25.623225,17.243375 24.990725,18.068375 C24.669975,18.486625 24.356725,18.580625 24.140225,18.580625" id="Fill-35"></path>
                <path d="M34.9564,27.86895 C33.5674,27.86895 32.4374,26.80295 32.4374,25.4927 C32.4374,24.1827 33.5674,23.1167 34.9564,23.1167 C36.33215,23.1167 37.4514,24.1827 37.4514,25.4927 C37.4514,26.80295 36.33215,27.86895 34.9564,27.86895" id="Fill-37"></path>
                <path d="M5.760625,43.0039 C2.018625,43.0039 0.187625,40.9539 0.187625,37.72965 L0.187625,27.97665 L1.103125,27.97665 C3.193125,27.97665 3.849875,28.59365 3.849875,30.36515 L3.849875,32.93265 C4.466875,32.1364 5.143625,31.4399 6.636375,31.4399 C9.621875,31.4399 11.771625,33.5099 11.771625,37.07265 C11.771625,40.73515 9.263875,43.0039 5.760625,43.0039 M5.939625,34.4054 C4.725625,34.4054 3.869625,35.4804 3.869625,37.27165 C3.869625,39.42115 4.705625,40.1379 5.999625,40.1379 C7.193625,40.1379 7.989875,39.16265 7.989875,37.47065 C7.989875,35.2614 7.253375,34.4054 5.939625,34.4054" id="Fill-39"></path>
                <path d="M71.03835,31.439975 C74.78035,31.439975 76.61135,33.489975 76.61135,36.714225 L76.61135,42.705225 L75.69585,42.705225 C73.60585,42.705225 73.0761,41.408725 73.0761,41.408725 C72.45885,42.204975 71.65535,43.003975 70.1626,43.003975 C67.1771,43.003975 65.02735,40.933975 65.02735,37.371225 C65.02735,33.708725 67.5351,31.439975 71.03835,31.439975 M70.85935,40.137975 C72.07335,40.137975 72.92935,39.062975 72.92935,37.271725 C72.92935,35.122225 72.09335,34.405475 70.79935,34.405475 C69.60535,34.405475 68.8091,35.380725 68.8091,37.072725 C68.8091,39.281975 69.5456,40.137975 70.85935,40.137975" id="Fill-41"></path>
                <path d="M26.1788,31.439975 C29.9208,31.439975 31.7518,33.489975 31.7518,36.714225 L31.7518,42.705225 L30.8363,42.705225 C28.7463,42.705225 28.21655,41.408725 28.21655,41.408725 C27.5993,42.204975 26.7958,43.003975 25.30305,43.003975 C22.31755,43.003975 20.1678,40.933975 20.1678,37.371225 C20.1678,33.708725 22.67555,31.439975 26.1788,31.439975 M25.9998,40.137975 C27.2138,40.137975 28.0698,39.062975 28.0698,37.271725 C28.0698,35.122225 27.2338,34.405475 25.9398,34.405475 C24.7458,34.405475 23.94955,35.380725 23.94955,37.072725 C23.94955,39.281975 24.68605,40.137975 25.9998,40.137975" id="Fill-43"></path>
                <path d="M19.665475,34.584775 C19.187725,34.405525 18.829475,34.365775 18.331725,34.365775 C17.416225,34.365775 16.699725,34.823275 16.699725,36.157025 L16.699725,42.705275 L15.664975,42.705275 C14.032725,42.705275 13.037475,41.949025 13.037475,40.118025 L13.037475,35.360775 C13.037475,33.151775 14.530225,31.400025 17.018225,31.400025 C18.909225,31.400025 19.784975,32.176275 19.784975,33.191275 L19.784975,34.584775 L19.665475,34.584775 Z" id="Fill-45"></path>
                <path d="M36.7457,42.864625 C34.73545,42.864625 33.16295,41.869375 33.16295,39.281875 L33.16295,32.096875 L34.09845,32.096875 C36.24795,32.096875 36.9447,32.713875 36.9447,34.704125 L36.9447,38.724625 C36.9447,39.699875 37.40245,39.998375 38.45745,39.998375 L38.9152,39.998375 L38.9152,41.112875 C38.9152,42.426875 37.91995,42.864625 36.7457,42.864625" id="Fill-47"></path>
                <path d="M49.196025,42.70535 C47.524025,42.70535 47.006525,42.1481 47.006525,40.4761 L47.006525,36.6346 C47.006525,35.16185 46.509025,34.5051 45.235025,34.5051 C44.140275,34.5051 43.543275,35.2416 43.543275,36.5751 L43.543275,42.70535 L42.269275,42.70535 C40.657275,42.70535 39.761525,42.0686 39.761525,40.4761 L39.761525,36.6346 C39.761525,33.48985 41.851525,31.4401 45.334775,31.4401 C49.215775,31.4401 50.788025,33.48985 50.788025,36.73435 L50.788025,42.70535 L49.196025,42.70535 Z" id="Fill-49"></path>
                <path d="M57.826275,43.0039 C54.084275,43.0039 52.253025,40.9539 52.253025,37.72965 L52.253025,27.97665 L53.168775,27.97665 C55.258525,27.97665 55.915525,28.59365 55.915525,30.36515 L55.915525,32.93265 C56.532525,32.1364 57.209275,31.4399 58.702025,31.4399 C61.687525,31.4399 63.837275,33.5099 63.837275,37.07265 C63.837275,40.73515 61.329275,43.0039 57.826275,43.0039 M58.005275,34.4054 C56.791275,34.4054 55.935275,35.4804 55.935275,37.27165 C55.935275,39.42115 56.771275,40.1379 58.065275,40.1379 C59.259275,40.1379 60.055525,39.16265 60.055525,37.47065 C60.055525,35.2614 59.319025,34.4054 58.005275,34.4054" id="Fill-51"></path>
                <path d="M86.035725,39.819425 C82.970475,45.710925 82.194225,46.307925 79.905475,46.307925 C78.691225,46.307925 77.676225,45.651175 77.676225,44.416925 L77.676225,43.501675 L79.308225,43.382175 C80.303475,43.302425 80.761475,42.904675 81.159225,42.008925 C79.586975,39.660175 77.576725,34.684175 77.138725,31.758175 L79.109225,31.758175 C80.044725,31.758175 81.019975,32.335675 81.238975,33.310925 C81.616975,35.042675 82.373475,37.152175 82.950475,38.485925 C83.766725,36.833925 84.622475,33.887925 84.861475,31.758175 L86.672725,31.758175 C87.767475,31.758175 88.284975,32.275675 88.284975,33.151675 C88.284975,34.305925 87.249975,37.490675 86.035725,39.819425" id="Fill-53"></path>
                <path d="M41.736575,23.6185 C40.777575,23.6185 39.885825,23.17325 39.350575,22.42775 C38.789325,21.64625 38.734825,20.68 39.200825,19.77675 C39.336325,19.554 39.533825,19.33225 39.672575,19.206 C40.345075,18.5345 40.742325,17.47925 40.610575,16.703 C40.550075,16.34675 40.375825,16.09 40.106325,15.9605 C39.723575,15.776 39.305075,15.77225 38.895825,15.94975 C38.274075,16.22 37.764075,16.866 37.496825,17.7225 C37.196825,18.9685 36.219075,19.82925 34.949075,19.9565 C34.528325,19.99825 34.110075,19.95 33.704575,19.813 C32.744575,19.5195 31.962075,19.5505 31.447075,19.905 C31.021575,20.198 30.780325,20.71575 30.730325,21.4445 C30.545325,22.59075 29.856075,23.29175 28.884575,23.33775 C28.156325,23.37075 27.401575,22.95125 26.867575,22.2125 C26.160075,21.234 25.984075,19.939 26.408325,18.8335 C26.506825,18.6185 26.598075,18.49875 26.713575,18.34725 L26.805325,18.2255 C27.585825,17.21875 27.642325,15.758 26.948825,14.58725 L26.937075,14.56475 C26.446825,13.76175 26.468075,12.667 26.994075,11.7025 C27.093325,11.5385 27.170325,11.4465 27.244825,11.35725 C27.286575,11.30775 27.327825,11.2585 27.375825,11.195 C27.404325,11.1575 27.450075,11.103 27.508325,11.03475 C28.197075,10.22375 29.009325,9.05675 28.115575,8.28375 C27.847075,8.05125 27.725325,7.6885 27.781325,7.28875 C27.836825,6.89325 28.058575,6.57975 28.153075,6.44575 C28.262325,6.30375 28.408575,6.1555 28.471075,6.09275 L28.493825,6.068 C29.506825,5.063 29.417075,4.7945 29.412575,4.78375 C29.408325,4.7725 29.351325,4.7265 29.170075,4.721 C29.129825,4.71975 29.108325,4.71925 29.063325,4.726 C28.848575,4.75975 28.712075,4.6905 28.635075,4.6265 C28.560075,4.56425 28.469075,4.44725 28.462575,4.24225 C28.454825,3.999 28.592825,3.7425 28.840825,3.53825 C29.386825,3.02125 30.048825,2.79325 30.749575,2.552 L30.980075,2.472 C31.375075,2.334 31.675075,2.298 31.872575,2.3645 L31.913325,2.3775 C32.488825,2.59375 33.801825,2.26075 34.760325,2.0175 L34.969825,1.96475 C36.125325,1.673 36.508825,1.6695 36.789075,1.66675 C37.423075,1.659 39.166825,1.499 39.611325,0.85775 C39.720825,0.70175 39.811075,0.6185 39.945075,0.54975 C40.846325,0.09525 42.596825,0.129 44.109825,0.6295 C44.920825,0.898 45.512325,1.25775 45.775325,1.643 L45.800575,1.67125 C46.646325,2.6685 47.592075,3.07025 49.049325,3.614 L49.108325,3.64225 C49.840075,3.9245 50.610325,4.45225 51.176825,5.0605 C51.990825,5.9345 52.324075,6.85375 52.046825,7.45925 C51.869825,7.846 51.471075,8.04675 50.930075,8.0275 C49.345325,7.96775 47.408575,6.3205 46.921825,5.00625 L46.910325,4.975 C46.617825,4.18175 46.005075,3.2535 43.873575,3.06975 C43.240075,3.06925 42.489075,2.9615 41.775825,2.76725 C40.172075,2.43575 39.333575,2.66975 38.797075,3.6055 C38.633825,3.958 38.413075,4.15725 38.012575,4.43925 C36.674325,5.3825 34.948325,5.47825 33.934325,5.085 C33.388075,4.87325 33.035825,4.525 32.942575,4.1045 C32.871075,3.893 32.765825,3.758 32.606575,3.686 C32.284075,3.5405 31.700075,3.5125 31.178075,3.7955 C30.618825,4.099 30.452575,4.522 30.480325,4.792 C30.497075,4.95225 30.656575,5.10375 31.049575,5.33125 L31.054825,5.3345 C31.302075,5.4555 31.477075,5.66375 31.553075,5.92625 L31.554325,5.92725 L31.576825,5.99625 C31.632575,6.24725 31.799825,6.998 32.144575,7.20075 C32.574325,7.454 33.320825,7.25125 34.603075,6.871 L34.653325,6.856 L34.665325,6.858 C35.162825,6.721 35.697075,6.74675 35.975325,6.77525 C37.479575,6.86425 39.136325,6.7425 39.945575,5.15725 C39.979325,5.09075 40.015325,5.02975 40.055075,4.97025 C40.148325,4.82925 40.246325,4.72825 40.293575,4.6795 C41.658825,3.4705 43.563575,4.0345 44.446575,4.672 C44.986075,5.06175 45.339325,5.5435 45.468575,6.0655 C45.987825,7.77375 46.869075,8.2445 48.527575,8.59825 C49.511075,8.72525 50.369575,9.496 50.801075,10.11675 C51.556575,11.20475 51.716575,12.554 51.189325,13.39825 C50.796575,14.0265 50.103325,14.299 49.236075,14.16475 C47.691575,13.9265 46.304575,12.43325 46.206825,10.904 C46.051825,9.87925 45.417575,8.85125 44.700075,8.47675 C44.510575,8.37775 44.231075,8.286 43.976575,8.4115 C43.797325,8.50025 43.673075,8.68475 43.607575,8.9595 C43.429575,9.7035 43.733825,10.8445 44.124575,11.368 C44.718325,11.99025 45.013825,12.821 44.941575,13.68975 C44.873075,14.5125 44.472825,15.26475 43.841075,15.76025 L43.840575,15.761 L43.653075,15.9065 C42.986825,16.43175 42.622825,16.978 42.571075,17.5295 C42.494075,18.34625 43.110325,19.05575 43.478575,19.4795 L43.501075,19.50675 C44.168075,20.22675 44.421325,21.22925 44.145575,22.0695 C43.878575,22.88375 43.166825,23.436 42.192825,23.584 C42.043075,23.607 41.889575,23.6185 41.736575,23.6185 M33.270075,10.9995 C31.859825,10.9995 31.100575,12.5585 30.773325,13.488 C30.571825,14.06125 29.958325,14.84375 29.952825,14.85 C29.336075,15.5375 29.017575,16.292 29.057075,16.9735 C29.082075,17.4045 29.251825,17.77975 29.535325,18.03075 C29.664575,18.14475 29.815825,18.1725 30.012325,18.116 C30.620825,17.943 31.388075,17.015 31.654575,16.1305 C31.723825,15.84425 31.840075,15.553 31.996825,15.275 C32.838825,13.97425 33.483325,13.24225 35.384325,13.95675 C37.034825,14.57725 38.126075,14.08675 38.818075,12.41325 C38.907325,12.121 39.056075,11.8245 39.254075,11.5495 C39.437575,11.31425 39.649075,11.11125 39.887575,10.9395 C40.794825,10.26325 41.358075,9.4265 41.355335,8.75775 C41.353825,8.416 41.205325,8.14175 40.901075,7.919 C40.573075,7.679 40.169075,7.614 39.731575,7.73075 C38.914575,7.94975 38.095575,8.75125 37.645075,9.773 C37.229325,10.7145 36.543325,11.30175 35.605825,11.518 C34.921825,11.67625 34.826575,11.661 34.372575,11.54125 L34.206325,11.498 C34.034825,11.4505 33.857825,11.33375 33.686575,11.2205 C33.545325,11.12725 33.352075,10.9995 33.270075,10.9995" id="Fill-55"></path>
            </g>
        </g>
    </g>
</svg>